<?xml version="1.0" encoding="UTF-8" standalone="no"?>
<!DOCTYPE svg PUBLIC "-//W3C//DTD SVG 1.1//EN" "http://www.w3.org/Graphics/SVG/1.1/DTD/svg11.dtd">
<svg version="1.0" xmlns="http://www.w3.org/2000/svg"
 width="854.000000pt" height="854.000000pt" viewBox="0 0 854.000000 854.000000"
 preserveAspectRatio="xMidYMid meet">
	<g transform="translate(0.000000,854.000000) scale(0.100000,-0.100000)" fill="#000000" stroke="none">
		<path d="M2419 8525 c-250 -50 -451 -231 -534 -480 -23 -66 -29 -108 -36 -245
-11 -222 -11 -6850 1 -7060 10 -186 27 -257 91 -381 94 -181 231 -290 425
-339 78 -20 109 -20 1919 -18 l1840 3 80 27 c262 89 435 302 475 583 8 59 10
1054 8 3700 l-3 3620 -23 75 c-40 128 -97 224 -187 314 -117 118 -235 180
-395 205 -105 17 -3575 13 -3661 -4z m2436 -489 c32 -32 40 -69 25 -107 -25
-60 -18 -59 -599 -59 -306 0 -540 4 -554 9 -79 30 -92 129 -22 169 14 8 176
11 573 12 l553 0 24 -24z m1595 -3026 l0 -2400 -593 0 -593 0 -31 43 c-78 111
-260 119 -347 17 -14 -17 -26 -38 -26 -46 0 -12 -32 -14 -190 -14 -115 0 -190
4 -190 10 0 21 -67 84 -109 103 -53 23 -131 25 -181 4 -37 -16 -80 -57 -99
-94 -12 -23 -15 -23 -194 -22 l-182 0 -30 42 c-91 124 -284 122 -355 -5 l-21
-38 -615 0 -614 0 0 2400 0 2400 2185 0 2185 0 0 -2400z m-2885 -2446 c47 -31
58 -126 15 -137 -14 -3 -20 -13 -20 -31 0 -21 8 -29 40 -42 27 -11 51 -32 71
-60 l30 -44 198 0 198 0 24 35 c13 19 43 45 67 57 34 18 42 28 42 50 0 17 -8
31 -20 38 -30 16 -27 80 6 119 63 76 185 4 160 -94 -4 -14 -13 -25 -21 -25
-10 0 -15 -11 -15 -33 0 -28 5 -36 35 -50 19 -9 47 -35 62 -56 l28 -40 199 -1
198 0 39 44 c21 24 52 49 69 56 24 10 30 18 30 44 0 20 -7 35 -20 44 -53 33 0
142 70 142 64 0 99 -34 100 -97 0 -32 -5 -46 -20 -55 -13 -9 -20 -24 -20 -45
0 -28 4 -33 24 -33 27 0 81 -48 91 -80 6 -19 16 -20 180 -20 l173 0 6 34 c16
82 125 171 224 183 101 12 210 -47 257 -138 17 -32 17 -32 -7 -24 -79 25 -133
10 -169 -48 -39 -62 -6 -159 62 -187 24 -10 41 -11 73 -2 22 6 43 9 45 6 12
-12 -60 -90 -105 -116 -138 -77 -312 -20 -373 122 l-22 50 -169 0 c-143 0
-170 -2 -170 -15 0 -21 -66 -84 -95 -91 -31 -8 -33 -39 -5 -56 30 -19 28 -91
-5 -123 -34 -35 -106 -35 -140 0 -32 31 -34 93 -5 120 28 25 26 53 -5 61 -25
6 -95 76 -95 94 0 6 -77 10 -210 10 -209 0 -211 0 -219 -22 -13 -32 -61 -75
-93 -83 -34 -9 -35 -19 -3 -57 55 -65 17 -148 -68 -148 -62 0 -97 33 -97 92 0
31 6 48 20 61 29 25 25 41 -15 56 -34 12 -85 66 -85 89 0 9 -57 12 -207 12
l-208 -1 -20 -32 c-18 -28 -43 -48 -101 -83 -17 -10 -17 -13 9 -43 34 -41 35
-80 1 -120 -22 -26 -33 -31 -69 -31 -59 0 -96 31 -98 83 -1 25 6 44 21 60 25
27 29 57 7 57 -19 0 -92 66 -100 91 -6 18 -18 19 -210 19 l-204 0 -15 -27
c-34 -66 -113 -109 -181 -99 -79 12 -132 63 -156 149 -27 99 71 217 181 217
55 0 115 -33 146 -79 l27 -41 202 0 203 0 12 30 c12 30 50 61 85 70 31 9 31
53 1 84 -29 28 -31 41 -15 83 21 58 92 81 144 47z m-211 -849 c58 -60 111 -81
179 -70 75 13 122 41 161 97 16 22 22 23 199 26 l183 4 38 -46 c48 -59 87 -79
156 -80 72 0 141 31 172 77 28 43 51 47 262 46 l151 0 30 -42 c44 -60 87 -82
160 -81 73 1 131 28 175 82 l30 38 598 0 597 -1 0 -105 0 -105 -2180 0 -2180
0 -3 94 c-1 52 -1 100 2 107 4 10 130 13 612 13 l607 0 51 -54z m-311 -475
c310 -96 405 -508 168 -734 -105 -100 -222 -137 -364 -117 -105 14 -173 48
-248 121 -148 145 -173 373 -60 548 111 170 310 242 504 182z m1343 6 c123
-33 231 -124 286 -241 40 -87 49 -204 23 -301 -58 -215 -267 -348 -493 -315
-100 15 -164 47 -236 118 -140 139 -173 333 -86 509 90 183 309 283 506 230z
m1432 -26 c172 -79 275 -276 244 -464 -40 -246 -257 -405 -499 -368 -136 21
-231 83 -303 194 -83 127 -93 284 -27 422 82 173 226 259 422 253 78 -3 100
-8 163 -37z"/>
		<path d="M4322 6992 c-106 -38 -172 -136 -171 -252 1 -119 50 -200 153 -250
59 -29 73 -32 129 -28 104 9 182 59 232 150 55 99 36 235 -46 316 -74 75 -194
100 -297 64z"/>
		<path d="M3887 6525 c-44 -17 -156 -90 -412 -269 -242 -169 -271 -195 -290
-258 -27 -91 -16 -173 29 -229 12 -14 101 -113 200 -220 98 -107 181 -200 183
-207 6 -13 -36 -85 -201 -347 l-101 -160 0 -65 c0 -75 19 -108 83 -147 75 -46
178 -17 240 67 54 73 333 510 364 569 33 64 36 127 9 188 -18 40 -94 130 -243
292 -37 40 -68 78 -68 85 1 15 318 239 329 231 5 -3 62 -74 126 -159 79 -103
129 -160 155 -175 36 -20 50 -21 361 -21 304 0 326 1 356 20 90 54 81 197 -15
237 -31 13 -71 14 -246 10 -120 -3 -217 -2 -227 3 -9 6 -38 40 -65 77 -258
366 -315 438 -367 465 -53 26 -149 33 -200 13z"/>
		<path d="M4691 5553 c4 -12 17 -40 29 -62 11 -22 20 -43 20 -46 0 -3 -141 -5
-314 -5 l-314 0 9 -37 c9 -39 3 -95 -13 -125 -8 -17 6 -18 229 -20 131 -1 277
-1 326 1 48 2 87 1 87 -2 0 -3 -100 -74 -222 -158 -394 -269 -431 -294 -568
-389 -353 -244 -346 -240 -408 -240 l-57 0 -55 -87 c-30 -47 -56 -90 -58 -95
-6 -14 345 -10 381 6 40 16 93 75 101 113 5 22 28 42 108 93 197 126 398 260
550 367 229 160 351 243 360 243 4 0 10 -10 13 -22 5 -18 -7 -37 -57 -88 -76
-78 -139 -171 -167 -244 -51 -137 -66 -332 -35 -469 58 -259 265 -488 509
-563 48 -15 91 -19 215 -18 140 0 163 3 235 27 131 43 256 131 341 240 190
242 220 556 82 837 -34 70 -58 102 -137 181 -82 82 -110 103 -191 143 -127 62
-210 79 -370 74 -85 -3 -143 -10 -182 -23 -32 -10 -59 -17 -61 -14 -2 2 -41
83 -87 179 -114 241 -98 223 -212 224 -95 1 -96 1 -87 -21z m772 -548 c156
-33 318 -159 389 -302 88 -177 72 -396 -43 -567 -59 -88 -117 -141 -203 -184
-81 -41 -132 -51 -239 -52 -128 0 -212 22 -300 79 -292 191 -339 589 -104 865
l34 39 50 -94 c28 -52 85 -168 128 -259 42 -91 87 -175 99 -188 32 -33 99 -41
143 -17 111 60 89 212 -38 248 -13 4 -192 365 -201 406 -7 35 168 51 285 26z"/>
		<path d="M3085 5209 c-294 -45 -524 -235 -622 -515 -25 -73 -28 -91 -28 -234
0 -135 3 -165 23 -230 32 -101 82 -194 148 -274 70 -85 140 -140 239 -188 243
-117 572 -84 778 77 99 78 220 252 243 348 l6 28 -35 -21 c-31 -18 -162 -43
-179 -34 -3 2 -21 -15 -39 -38 -125 -163 -249 -228 -438 -228 -171 0 -271 40
-387 155 -221 218 -227 561 -15 787 110 117 221 167 395 177 l109 6 48 75 c26
41 48 80 48 86 2 23 -197 39 -294 23z"/>
		<path d="M3104 4551 c-43 -26 -68 -90 -54 -139 19 -67 63 -102 129 -102 38 0
49 5 87 44 36 35 44 50 44 80 0 109 -114 173 -206 117z"/>
		<path d="M4110 4469 c-48 -33 -88 -69 -92 -82 -4 -12 -19 -66 -33 -120 -17
-66 -60 -173 -129 -320 -57 -122 -134 -294 -171 -382 -37 -88 -105 -249 -151
-357 -46 -108 -84 -202 -84 -208 0 -9 89 -11 368 -9 l369 4 0 108 c1 60 5 113
10 118 20 20 69 27 100 14 l31 -13 4 -105 c1 -58 7 -109 11 -114 5 -4 172 -9
372 -10 l364 -2 -45 107 c-25 59 -72 172 -104 252 -97 241 -177 425 -270 620
-110 231 -159 382 -160 492 0 63 -13 68 -168 67 l-137 -1 -85 -59z m204 -195
c11 -10 16 -35 17 -77 2 -162 -4 -177 -70 -177 -65 1 -76 18 -79 130 -3 89 -2
100 17 119 26 26 92 29 115 5z m-6 -510 c21 -14 22 -23 22 -129 0 -106 -1
-115 -22 -129 -33 -23 -75 -20 -103 9 -23 22 -25 32 -25 120 0 88 2 98 25 120
28 29 70 32 103 9z"/>
		<path d="M3415 3614 c-114 -42 -262 -52 -385 -28 -28 6 -32 2 -115 -127 -177
-275 -295 -461 -295 -465 0 -2 125 -4 279 -4 l278 0 88 188 c48 103 117 245
152 315 35 71 63 132 61 136 -2 3 -30 -3 -63 -15z"/>
		<path d="M5059 3614 c13 -23 147 -313 226 -491 l59 -133 278 0 c153 0 278 2
278 4 0 6 -77 131 -227 371 l-138 220 -35 -2 c-19 -2 -89 -3 -155 -4 -118 -1
-137 2 -278 48 -16 5 -17 3 -8 -13z"/>
		<path d="M2810 953 c-53 -54 -112 -116 -132 -138 l-37 -40 46 -48 46 -49 86
86 86 85 89 -86 89 -86 43 47 c24 25 44 49 44 52 0 8 -252 274 -259 274 -4 0
-49 -44 -101 -97z"/>
		<path d="M4210 1101 c-86 -28 -150 -82 -191 -161 -35 -67 -34 -186 3 -255 31
-60 77 -104 138 -136 64 -34 186 -34 250 0 61 32 107 76 138 136 22 42 27 63
27 130 0 67 -5 88 -27 130 -52 99 -140 156 -248 161 -36 2 -76 0 -90 -5z m168
-67 c87 -36 142 -120 142 -219 0 -137 -98 -235 -235 -235 -135 0 -234 98 -235
233 0 98 50 178 135 218 50 23 142 25 193 3z"/>
		<path d="M4298 923 l-86 -34 -37 -95 c-36 -92 -39 -124 -13 -124 6 0 54 16
104 36 l93 35 36 95 c54 138 46 144 -97 87z m17 -108 c0 -27 -3 -30 -30 -30
-21 0 -31 5 -33 18 -6 33 6 49 35 45 24 -3 28 -8 28 -33z"/>
		<path d="M5480 1007 c-44 -15 -80 -68 -80 -117 0 -50 40 -108 144 -209 l87
-84 86 84 c111 110 143 153 143 196 0 61 -51 129 -106 139 -33 6 -92 -17 -107
-42 -6 -11 -15 -9 -41 11 -41 31 -81 38 -126 22z"/>
	</g>
</svg>